# xmcd
#
# Track frame offsets:
#	150
#	16935
#	28626
#	44591
#	61399
#	75817
#	89408
#	103325
#	118899
#	130035
#	150912
#	168953
#	180945
#	194855
#	209621
#	226428
#	244805
#	263683
#
# Disc length: 3763 seconds
#
# Revision: 0
# Processed by: cddbd v1.5.2PL0 Copyright (c) Steve Scherf et al.
# Submitted via: dBpowerAMP V4.0
#
DISCID=ed0eb112
DTITLE=Natacha Ezdra - chante Jean Ferrat   Un jour Futur
DYEAR=2010
DGENRE=Chanson
TTITLE0=J'entends,j'entends
TTITLE1=Le p'tit jardin
TTITLE2=Mon vieux
TTITLE3=Tu es venu
TTITLE4=Aimer à perdre la raison
TTITLE5=On ne voit pas le temps passer
TTITLE6=Tu verras,tu seras bien
TTITLE7=Que serais-je sans toi?
TTITLE8=La matinée (duo avec Serge Utgé-Royo)
TTITLE9=Nuit et brouillard
TTITLE10=Un jour,un jour
TTITLE11=Je ne chante pas pour passer le temps
TTITLE12=En groupe,en ligue,en procession
TTITLE13=Camarade
TTITLE14=Ma France
TTITLE15=Les oiseaux déguisés
TTITLE16=Un jour futur
TTITLE17=La montagne (avec le public)
EXTD=Natacha Ezdra chante Jean Ferrat   UN JOUR FUTUR
EXTT0=
EXTT1=
EXTT2=
EXTT3=
EXTT4=
EXTT5=
EXTT6=
EXTT7=
EXTT8=
EXTT9=
EXTT10=
EXTT11=
EXTT12=
EXTT13=
EXTT14=
EXTT15=
EXTT16=
EXTT17=
PLAYORDER=
